<?xml version="1.0" encoding="UTF-8"?>
<svg version="1.1" xmlns="http://www.w3.org/2000/svg" width="2085" height="2084">
<path d="M0 0 C1.67588951 -0.00422974 1.67588951 -0.00422974 3.38563538 -0.00854492 C4.60816513 -0.00652069 5.83069489 -0.00449646 7.090271 -0.00241089 C8.3823497 -0.00416321 9.67442841 -0.00591553 11.00566101 -0.00772095 C14.55965896 -0.01228898 18.11362791 -0.01050401 21.66762638 -0.00734186 C25.42722205 -0.00479582 29.18681536 -0.00716379 32.94641113 -0.00872803 C39.29856809 -0.01055124 45.65071346 -0.00814783 52.00286865 -0.00338745 C58.44395714 0.00138544 64.88502243 0.00149233 71.32611084 -0.00338745 C132.71883638 -0.04861523 132.71883638 -0.04861523 157.28070068 0.56057739 C158.46091419 0.58849932 158.46091419 0.58849932 159.6649704 0.61698532 C190.43739379 1.37847234 217.79206311 8.42574031 239.76116943 31.31448364 C257.16017015 51.45326207 264.16927804 77.44095256 262.71820068 103.74172974 C261.07369997 122.68839483 251.9320924 138.24505029 237.75726318 150.50979614 C235.37570429 152.43349945 232.95904738 154.28898655 230.51116943 156.12698364 C228.84085731 157.45574735 227.17324241 158.78792838 225.51116943 160.12698364 C226.55015381 160.88881958 227.58913818 161.65065552 228.65960693 162.43557739 C250.78962222 178.7647013 266.06033482 196.323857 272.09320068 223.77542114 C275.38522452 250.17314495 269.58216033 274.73071225 253.25726318 295.74075317 C234.29974356 319.15502914 204.98051096 328.21739159 175.92846107 331.41088295 C154.99746497 333.45615131 134.09662927 333.40926528 113.08926749 333.36270308 C108.18854667 333.35376482 103.28782754 333.35568294 98.38710022 333.35606384 C90.18014909 333.35513499 81.97323553 333.346552 73.76629639 333.33279419 C64.31556662 333.31700865 54.86487764 333.31179891 45.41413563 333.31252974 C35.27482368 333.31320753 25.13552714 333.30626234 14.99621987 333.29708314 C12.10287876 333.2949652 9.20954017 333.29424385 6.31619835 333.29384422 C1.75965538 333.29283187 -2.79685407 333.28666336 -7.35338593 333.27667809 C-9.01329785 333.27378586 -10.67321363 333.27252096 -12.33312798 333.27310562 C-45.16809965 333.28028839 -45.16809965 333.28028839 -54.92633057 324.18948364 C-60.16516836 318.50194909 -64.79106688 312.26055424 -69.48883057 306.12698364 C-70.11563721 305.31261841 -70.74244385 304.49825317 -71.38824463 303.65921021 C-78.19623378 294.81179435 -84.98603768 285.95232317 -91.48883057 276.87698364 C-91.90398926 276.29883911 -92.31914795 275.72069458 -92.74688721 275.12503052 C-95.48883057 271.25574389 -95.48883057 271.25574389 -95.48883057 270.12698364 C-94.23337276 270.1236735 -92.97791494 270.12036335 -91.68441296 270.1169529 C-61.80958675 270.03774968 -31.93480896 269.94846043 -2.06005106 269.84693203 C1.62571685 269.83441479 5.31148504 269.82198176 8.99725342 269.80960083 C10.09780034 269.80590184 10.09780034 269.80590184 11.22058054 269.80212812 C23.06410885 269.76252178 34.90764657 269.72972112 46.75120208 269.69948383 C58.92494543 269.66825023 71.09864927 269.62959107 83.27234811 269.58419359 C90.10119711 269.55893674 96.93002182 269.53698594 103.75890541 269.52363968 C110.19964181 269.51071389 116.64028327 269.48854839 123.08096695 269.45960045 C125.43214701 269.45060622 127.78334231 269.44485377 130.13453865 269.44277 C167.23475562 270.17026579 167.23475562 270.17026579 199.85491943 255.02151489 C205.97504947 248.57985628 208.57548597 243.10660957 208.94866943 234.25198364 C208.60998437 222.55998632 202.69185393 213.97197274 194.51116943 206.06448364 C177.51967852 191.60182666 156.02894977 190.00467437 134.68841553 189.92166138 C133.08522611 189.91192911 131.48203917 189.90178276 129.87885475 189.89125919 C125.61141627 189.8643773 121.34396765 189.84311306 117.07649231 189.82306671 C113.06226514 189.80334318 109.04807596 189.77848097 105.03387451 189.75405884 C93.31800159 189.685741 81.60208211 189.62560518 69.88616943 189.56448364 C43.69241943 189.42010864 17.49866943 189.27573364 -9.48883057 189.12698364 C-9.48883057 127.08698364 -9.48883057 65.04698364 -9.48883057 1.12698364 C-6.01391178 0.25825395 -3.52541905 0.00137114 0 0 Z M82.76116943 61.62698364 C68.28241943 61.87448364 68.28241943 61.87448364 53.51116943 62.12698364 C53.51116943 84.56698364 53.51116943 107.00698364 53.51116943 130.12698364 C69.68108449 130.18533541 69.68108449 130.18533541 85.85101318 130.22463989 C92.46416509 130.23650902 99.07726065 130.25041508 105.69036865 130.27786255 C111.03317245 130.29989413 116.37591566 130.3116148 121.71876144 130.31673813 C123.73808112 130.32038035 125.75739819 130.32748887 127.77669144 130.33844376 C162.68383142 131.61778786 162.68383142 131.61778786 193.13616943 117.60354614 C198.30586981 111.2952808 199.89483047 102.46859228 199.51116943 94.50198364 C198.36989579 86.16467933 194.74629125 79.05535588 188.12054443 73.78713989 C158.11035171 54.69382866 116.49190336 61.04048811 82.76116943 61.62698364 Z " fill="#EF7E20" transform="translate(1307.4888305664063,839.8730163574219)"/>
<path d="M0 0 C0 82.17 0 164.34 0 249 C-20.79 249 -41.58 249 -63 249 C-63 204.12 -63 159.24 -63 113 C-67.23276293 114.41092098 -68.40195471 117.47921079 -70.57421875 121.140625 C-71.47266405 122.61632113 -72.37293302 124.0909083 -73.27490234 125.56445312 C-73.7305658 126.31122314 -74.18622925 127.05799316 -74.65570068 127.82739258 C-76.62483744 131.00983943 -78.68517446 134.12656963 -80.76953125 137.234375 C-81.17066132 137.83364807 -81.57179138 138.43292114 -81.9850769 139.050354 C-82.82234489 140.2993618 -83.66042441 141.54782593 -84.49926758 142.79577637 C-86.86626912 146.31811581 -89.22414094 149.84655739 -91.58203125 153.375 C-92.08783722 154.13174011 -92.59364319 154.88848022 -93.11477661 155.66815186 C-100.99287062 167.46751125 -108.77679407 179.329395 -116.57348633 191.18261719 C-119.45538712 195.56338538 -122.34190371 199.94108462 -125.23095703 204.31713867 C-126.44730268 206.16180088 -127.66171415 208.00773946 -128.87451172 209.85473633 C-130.74519845 212.70300929 -132.62204794 215.54713862 -134.5 218.390625 C-135.06340088 219.25153748 -135.62680176 220.11244995 -136.20727539 220.99945068 C-144.4808612 233.48851672 -144.4808612 233.48851672 -149.5 236.5 C-152.88203384 237.17640677 -154.69707096 237.12299587 -158 236 C-163.65887067 231.42469491 -167.57423804 225.56462563 -171.46484375 219.5 C-172.0556926 218.59489685 -172.64654144 217.6897937 -173.2552948 216.75726318 C-174.51013452 214.83362502 -175.76132322 212.90760091 -177.00909424 210.97937012 C-180.24497577 205.97996132 -183.50836818 200.99856406 -186.76953125 196.015625 C-187.72113129 194.55953827 -187.72113129 194.55953827 -188.69195557 193.07403564 C-195.0769997 183.31960044 -201.69389727 173.74759796 -208.42871094 164.23144531 C-210.90228524 160.71863159 -213.32545279 157.1717414 -215.75 153.625 C-224.65853525 140.6264034 -233.84081219 127.82286294 -243 115 C-243.33 186.61 -243.66 258.22 -244 332 C-266.11 332 -288.22 332 -311 332 C-311.09040865 307.19082435 -311.16404509 282.38178276 -311.20724869 257.57248402 C-311.22784498 246.05225017 -311.25590946 234.5321262 -311.30175781 223.01196289 C-311.34171541 212.96713376 -311.36745411 202.92238423 -311.37635398 192.87747782 C-311.38155362 187.56225423 -311.39371337 182.24725831 -311.42292023 176.93210793 C-311.4502304 171.92114682 -311.45841364 166.91050547 -311.45243073 161.89947701 C-311.45352402 160.06821704 -311.46138437 158.2369455 -311.4768219 156.40575027 C-311.65554213 134.09680474 -303.77598782 120.66434261 -290.3828125 103.37890625 C-287.27475084 99.36733829 -284.22200701 95.31735487 -281.1875 91.25 C-270.63286072 77.13237465 -259.89256049 63.1539355 -249.1796875 49.15625 C-246.93283216 46.2203216 -244.68840486 43.28255434 -242.4453125 40.34375 C-241.85838623 39.57514648 -241.27145996 38.80654297 -240.66674805 38.01464844 C-239.54797853 36.54949158 -238.42962379 35.08401786 -237.31176758 33.61816406 C-236.32090051 32.32097166 -235.32765814 31.02558862 -234.33154297 29.73242188 C-233.12897695 28.16780719 -231.94056744 26.59233656 -230.75390625 25.015625 C-230.17511719 24.35046875 -229.59632812 23.6853125 -229 23 C-228.34 23 -227.68 23 -227 23 C-225.82104492 24.43579102 -225.82104492 24.43579102 -224.48046875 26.50390625 C-223.96411865 27.29071777 -223.44776855 28.0775293 -222.91577148 28.88818359 C-222.0602771 30.21197021 -222.0602771 30.21197021 -221.1875 31.5625 C-219.91280012 33.50478751 -218.63667015 35.44613697 -217.359375 37.38671875 C-216.66134766 38.44938965 -215.96332031 39.51206055 -215.24414062 40.60693359 C-211.20194474 46.73649659 -207.0620476 52.80072317 -202.9375 58.875 C-202.0380758 60.20094704 -201.13874396 61.52695674 -200.23950195 62.85302734 C-198.40886195 65.55247238 -196.57784862 68.2516636 -194.74658203 70.95068359 C-192.04657202 74.93065937 -189.34905973 78.912323 -186.65234375 82.89453125 C-186.21453583 83.54103134 -185.77672791 84.18753143 -185.32565308 84.85362244 C-184.44557219 86.15323569 -183.56549608 87.45285217 -182.6854248 88.75247192 C-172.46682545 103.84168314 -162.23546053 118.92222262 -152 134 C-147.10493471 127.39994677 -142.44071554 120.74189141 -138.125 113.75 C-134.47447981 107.90293637 -130.78408653 102.09518926 -126.9375 96.375 C-122.51482996 89.79432792 -118.19578337 83.15133019 -113.8984375 76.48828125 C-111.41367085 72.63596263 -108.91385546 68.7936354 -106.41088867 64.953125 C-100.85862838 56.43180051 -95.35309982 47.8816886 -89.875 39.3125 C-89.19816162 38.25498535 -88.52132324 37.1974707 -87.82397461 36.10791016 C-84.79166248 31.36971543 -81.76340389 26.62915047 -78.75 21.87890625 C-77.79182964 20.37750015 -76.83350817 18.87619046 -75.875 17.375 C-75.46233887 16.71927002 -75.04967773 16.06354004 -74.62451172 15.38793945 C-57.13926269 -11.89748083 -41.37421326 0 0 0 Z " fill="#EF7E20" transform="translate(1276,840)"/>
<path d="M0 0 C3.43199991 1.14399997 3.798039 1.77337217 5.71484375 4.69140625 C6.22982422 5.46291016 6.74480469 6.23441406 7.27539062 7.02929688 C7.82388672 7.86525391 8.37238281 8.70121094 8.9375 9.5625 C13.13597471 15.83905513 17.41021097 22.00327915 22 28 C26.95256676 34.4919112 31.57337857 41.16915642 36.14453125 47.93359375 C39.62945331 53.06532862 43.23880082 58.06776783 47 63 C51.35659843 68.71300639 55.47735956 74.54728066 59.5 80.5 C64.02843208 87.200974 68.72669934 93.72103542 73.62329102 100.15673828 C77.50890519 105.28592819 81.17192353 110.54073993 84.7878418 115.86230469 C88.7792011 121.72152045 92.9170797 127.46659172 97.08251953 133.20288086 C101.37603526 139.12033252 105.60522727 145.08046647 109.80541992 151.06445312 C113.34767142 156.10348948 116.97235432 161.07091886 120.671875 165.99609375 C122 168 122 168 122 170 C115.68693927 170.02560879 109.37389222 170.0429741 103.06079102 170.05493164 C100.91853332 170.059923 98.77627896 170.06671843 96.6340332 170.07543945 C64.62352399 170.20237639 64.62352399 170.20237639 60.55297852 167.18774414 C58.0409938 164.6638104 56.01492582 161.92020549 54 159 C53.52626953 158.32549805 53.05253906 157.65099609 52.56445312 156.95605469 C49.79903165 153.00321074 47.085503 149.01816536 44.3984375 145.01171875 C41.16046639 140.20125793 37.79172261 135.49706948 34.375 130.8125 C29.80373072 124.53341162 25.34405385 118.19180896 20.96582031 111.77685547 C16.41098659 105.11193897 11.71241996 98.55396292 7 92 C6.56139648 91.36594238 6.12279297 90.73188477 5.67089844 90.07861328 C3.35183492 86.48946661 3.35183492 86.48946661 0 84 C-0.27457031 84.58467041 -0.54914063 85.16934082 -0.83203125 85.77172852 C-1.96334388 87.93006681 -3.19915212 89.72743082 -4.6875 91.65234375 C-5.48063599 92.68343262 -5.48063599 92.68343262 -6.28979492 93.73535156 C-6.8541626 94.46206055 -7.41853027 95.18876953 -8 95.9375 C-8.87458862 97.07203613 -8.87458862 97.07203613 -9.7668457 98.22949219 C-10.9520656 99.76653116 -12.13866185 101.30250984 -13.32666016 102.83740234 C-15.21616597 105.27936944 -17.09798678 107.72714422 -18.97851562 110.17602539 C-20.98320135 112.78592218 -22.99205059 115.39261382 -25 118 C-26.66695292 120.16644651 -28.33348969 122.33321301 -30 124.5 C-32.46404711 127.7037397 -34.92850341 130.90715941 -37.39453125 134.109375 C-47.65601636 147.43770138 -57.85888834 160.81061086 -68.05053711 174.19238281 C-73.83179762 181.78215445 -79.62514451 189.36261488 -85.42333984 196.93945312 C-88.1163821 200.45900664 -90.80812868 203.97955088 -93.5 207.5 C-96.71423063 211.70359447 -99.92867255 215.90702586 -103.14453125 220.109375 C-119.86943884 241.9437681 -119.86943884 241.9437681 -136.42431641 263.90698242 C-139.87614886 268.52159227 -143.36884131 273.1035948 -146.8737793 277.67797852 C-150.26345936 282.10786089 -153.63310221 286.55279184 -157 291 C-157.62712891 291.82419434 -158.25425781 292.64838867 -158.90039062 293.49755859 C-168.62333452 306.32946298 -176.1363467 317.36364797 -176.15821838 334.00422668 C-176.16315636 334.80479152 -176.16809434 335.60535635 -176.17318195 336.43018073 C-176.18852516 339.10945763 -176.19690896 341.78871062 -176.20532227 344.46801758 C-176.21490329 346.38991506 -176.2249135 348.31181043 -176.23532104 350.23370361 C-176.26235188 355.45016989 -176.28337133 360.6666452 -176.30332303 365.88314271 C-176.32519379 371.335091 -176.35257715 376.78701151 -176.37937927 382.23893738 C-176.4292914 392.56251013 -176.47423574 402.88609832 -176.51740164 413.20970124 C-176.56678664 424.9629372 -176.6217001 436.71614528 -176.67708123 448.46935427 C-176.79087857 472.64621146 -176.8969927 496.82309427 -177 521 C-198.12 521 -219.24 521 -241 521 C-241 482.72 -241 444.44 -241 405 C-245.50273806 407.59078384 -245.50273806 407.59078384 -248.69140625 411.01171875 C-249.15450195 411.5958252 -249.61759766 412.17993164 -250.09472656 412.78173828 C-250.5790918 413.41063965 -251.06345703 414.03954102 -251.5625 414.6875 C-252.08424805 415.35249512 -252.60599609 416.01749023 -253.14355469 416.70263672 C-257.75940983 422.61453528 -262.25588941 428.61658141 -266.734375 434.6328125 C-270.45087775 439.61808416 -274.22583712 444.55832236 -278 449.5 C-282.69258188 455.64756907 -287.3698467 461.80526193 -292 468 C-297.30628937 475.09934869 -302.67041945 482.15379278 -308.06054688 489.18969727 C-311.22193269 493.32250314 -314.35772393 497.4666462 -317.40625 501.68359375 C-317.9321875 502.40546875 -318.458125 503.12734375 -319 503.87109375 C-319.9579126 505.19071813 -320.90680907 506.5169664 -321.84375 507.8515625 C-325.76080209 513.22585123 -330.60070679 517.86690226 -337 520 C-338.97842761 520.08888831 -340.95976634 520.11760873 -342.94018555 520.11352539 C-344.16122482 520.11344986 -345.3822641 520.11337433 -346.64030457 520.11329651 C-347.95912125 520.10813522 -349.27793793 520.10297394 -350.63671875 520.09765625 C-352.00006559 520.0957908 -353.36341311 520.0943675 -354.72676086 520.09336853 C-358.31228491 520.08955332 -361.89776835 520.07973155 -365.48327637 520.06866455 C-369.1431422 520.05842901 -372.8030146 520.05386632 -376.46289062 520.04882812 C-383.64194558 520.03810838 -390.8209671 520.02104393 -398 520 C-393.80478323 512.49620168 -393.80478323 512.49620168 -391.40625 509.59765625 C-390.70653076 508.74046997 -390.70653076 508.74046997 -389.99267578 507.8659668 C-389.50009277 507.27082275 -389.00750977 506.67567871 -388.5 506.0625 C-384.2588462 500.85188381 -380.13073915 495.5812338 -376.125 490.1875 C-370.07003452 482.04620184 -363.84018647 474.0472806 -357.59716797 466.04980469 C-350.94642913 457.51424931 -344.3933608 448.90268126 -337.82275391 440.30541992 C-332.89556753 433.85965988 -327.95025199 427.42805968 -323 421 C-321.33304708 418.83355349 -319.66651031 416.66678699 -318 414.5 C-315.53595289 411.2962603 -313.07149659 408.09284059 -310.60546875 404.890625 C-305.8924 398.76896543 -301.19125402 392.63839588 -296.5 386.5 C-291.01437558 379.32218908 -285.51203249 372.15754953 -280 365 C-278.33304708 362.83355349 -276.66651031 360.66678699 -275 358.5 C-272.53595289 355.2962603 -270.07149659 352.09284059 -267.60546875 348.890625 C-262.8924 342.76896543 -258.19125402 336.63839588 -253.5 330.5 C-248.01437558 323.32218908 -242.51203249 316.15754953 -237 309 C-235.33304708 306.83355349 -233.66651031 304.66678699 -232 302.5 C-229.53595289 299.2962603 -227.07149659 296.09284059 -224.60546875 292.890625 C-219.8924 286.76896543 -215.19125402 280.63839588 -210.5 274.5 C-205.01437558 267.32218908 -199.51203249 260.15754953 -194 253 C-192.33304708 250.83355349 -190.66651031 248.66678699 -189 246.5 C-186.53595289 243.2962603 -184.07149659 240.09284059 -181.60546875 236.890625 C-176.8924 230.76896543 -172.19125402 224.63839588 -167.5 218.5 C-162.01437558 211.32218908 -156.51203249 204.15754953 -151 197 C-149.33304708 194.83355349 -147.66651031 192.66678699 -146 190.5 C-143.53595289 187.2962603 -141.07149659 184.09284059 -138.60546875 180.890625 C-133.8924 174.76896543 -129.19125402 168.63839588 -124.5 162.5 C-119.01437558 155.32218908 -113.51203249 148.15754953 -108 141 C-106.33304708 138.83355349 -104.66651031 136.66678699 -103 134.5 C-100.53595289 131.2962603 -98.07149659 128.09284059 -95.60546875 124.890625 C-90.8924 118.76896543 -86.19125402 112.63839588 -81.5 106.5 C-76.01437558 99.32218908 -70.51203249 92.15754953 -65 85 C-63.33304708 82.83355349 -61.66651031 80.66678699 -60 78.5 C-57.53595289 75.2962603 -55.07149659 72.09284059 -52.60546875 68.890625 C-47.8924 62.76896543 -43.19125402 56.63839588 -38.5 50.5 C-33.01437558 43.32218908 -27.51203249 36.15754953 -22 29 C-19.92177951 26.29905178 -17.84397396 23.59778438 -15.7668457 20.89599609 C-13.58711043 18.06117738 -11.40478159 15.22840457 -9.21875 12.3984375 C-8.76371094 11.80869141 -8.30867188 11.21894531 -7.83984375 10.61132812 C-6.96824454 9.48180671 -6.09588879 8.35286854 -5.22265625 7.22460938 C-3.39768643 4.85813212 -1.65882404 2.48823606 0 0 Z " fill="#EF7E20" transform="translate(1124,651)"/>
<path d="M0 0 C70.5661157 0 70.5661157 0 75.30078125 3.890625 C80.79897514 10.33899221 85.76769669 17.0741741 90.609375 24.01806641 C93.12202646 27.59912408 95.68716447 31.1422698 98.25 34.6875 C99.06742676 35.81961914 99.06742676 35.81961914 99.90136719 36.97460938 C104.48320654 43.30966274 109.12093523 49.60261778 113.76635742 55.89111328 C120.45240175 64.95106021 127.02736019 74.09036112 133.60449219 83.22949219 C141.44514498 94.12061172 149.36390855 104.95067579 157.33642578 115.74560547 C159.91727393 119.24304483 162.49106644 122.7456351 165.0625 126.25 C165.49127441 126.83354248 165.92004883 127.41708496 166.36181641 128.01831055 C166.76964355 128.57429932 167.1774707 129.13028809 167.59765625 129.703125 C167.99098145 130.23873047 168.38430664 130.77433594 168.78955078 131.32617188 C169.65425344 132.52189624 170.50534075 133.72751485 171.34716797 134.93945312 C173.65850449 138.51828964 173.65850449 138.51828964 177 141 C177.28198242 140.410979 177.56396484 139.82195801 177.85449219 139.21508789 C178.89849109 137.19628951 180.01828606 135.41158133 181.328125 133.55859375 C181.79081787 132.9025415 182.25351074 132.24648926 182.73022461 131.57055664 C183.23175049 130.86664795 183.73327637 130.16273926 184.25 129.4375 C184.77795166 128.69298584 185.30590332 127.94847168 185.84985352 127.18139648 C190.40030756 120.78920288 195.04661499 114.46946652 199.71362305 108.16210938 C203.69672457 102.77767784 207.64547327 97.37018399 211.5625 91.9375 C212.36204102 90.82858398 212.36204102 90.82858398 213.17773438 89.69726562 C214.78587553 87.46536063 216.39311858 85.23281209 218 83 C224.63853738 73.77554423 231.30213096 64.573184 238.0625 55.4375 C242.46502658 49.48470272 246.80653779 43.49598738 251.0625 37.4375 C255.30645519 31.39717672 259.56959816 25.37174367 263.875 19.375 C264.39843994 18.64079834 264.92187988 17.90659668 265.46118164 17.15014648 C266.95057112 15.08124651 268.46549091 13.03561435 270 11 C270.4734082 10.36094727 270.94681641 9.72189453 271.43457031 9.06347656 C271.91249023 8.45729492 272.39041016 7.85111328 272.8828125 7.2265625 C273.29160645 6.69885254 273.70040039 6.17114258 274.12158203 5.62744141 C281.89151115 -1.10434277 290.16289351 -0.52998739 299.875 -0.390625 C301.41055562 -0.38315347 302.94612085 -0.37746485 304.48168945 -0.37347412 C308.49976484 -0.35828928 312.51725079 -0.31907085 316.53509521 -0.2746582 C320.64440948 -0.2335498 324.7538201 -0.21543007 328.86328125 -0.1953125 C336.90912298 -0.1525682 344.95448792 -0.08440553 353 0 C351.20795848 12.85492374 346.91130733 21.07779876 338.71582031 30.89941406 C335.40706246 34.95014722 332.28029542 39.14194077 329.125 43.3125 C327.74645667 45.12657793 326.36755202 46.94038134 324.98828125 48.75390625 C324.31619629 49.63836426 323.64411133 50.52282227 322.95166016 51.43408203 C320.07871671 55.21124436 317.19649283 58.98127103 314.3125 62.75 C313.79018799 63.43263916 313.26787598 64.11527832 312.72973633 64.81860352 C311.68314866 66.18639373 310.636518 67.55415104 309.58984375 68.921875 C307.94462024 71.07238829 306.30031538 73.22360122 304.65625 75.375 C298.98090959 82.80111146 293.29597775 90.21950941 287.59375 97.625 C284.55392372 101.57677416 281.52724909 105.5385882 278.5 109.5 C273.87616973 115.55067348 269.23970356 121.59129408 264.59375 127.625 C261.55392367 131.57677422 258.52726485 135.53860018 255.5 139.5 C250.01440437 146.6778328 244.51203238 153.84245061 239 161 C237.33304708 163.16644651 235.66652587 165.33322497 234 167.5 C233.16667453 168.58333938 232.3333412 169.66667272 231.5 170.75 C231.0875 171.28625 230.675 171.8225 230.25 172.375 C226.5 177.25 226.5 177.25 225.25073242 178.87402344 C224.41492624 179.96058779 223.57915165 181.04717645 222.7434082 182.13378906 C220.69816364 184.79288548 218.65230009 187.4514994 216.60546875 190.109375 C211.8924 196.23103457 207.19125402 202.36160412 202.5 208.5 C197.81963925 214.62414229 193.13482634 220.7446365 188.421875 226.84375 C186.68727253 229.10432871 184.96968616 231.37295226 183.265625 233.65625 C182.81340576 234.25727539 182.36118652 234.85830078 181.89526367 235.47753906 C181.02764266 236.63140031 180.16551667 237.78942073 179.30981445 238.95214844 C177.25998072 241.66604863 176.30755419 242.89748194 173 244 C172.28457031 243.04222656 171.56914063 242.08445312 170.83203125 241.09765625 C164.42957351 232.53747014 157.97430663 224.02018277 151.47265625 215.53515625 C147.70181931 210.61371119 143.94402499 205.68237376 140.1875 200.75 C139.5162207 199.86868408 138.84494141 198.98736816 138.15332031 198.0793457 C136.78495003 196.28274795 135.4166234 194.48611694 134.04833984 192.68945312 C130.69952511 188.29248731 127.34971973 183.89627638 124 179.5 C122.66666176 177.75000374 121.33332843 176.00000373 120 174.25 C119.34 173.38375 118.68 172.5175 118 171.625 C96 142.75 96 142.75 93.99707031 140.12109375 C92.67358118 138.38405471 91.35001441 136.64707482 90.02636719 134.91015625 C86.54175437 130.33735403 83.05878979 125.76330823 79.578125 121.1875 C78.85367188 120.23552734 78.12921875 119.28355469 77.3828125 118.30273438 C75.99689701 116.48149928 74.61145366 114.65990476 73.2265625 112.83789062 C72.28683594 111.60329102 72.28683594 111.60329102 71.328125 110.34375 C70.50683105 109.26383789 70.50683105 109.26383789 69.66894531 108.16210938 C67.80849985 105.75191262 65.90202005 103.37752507 64 101 C63.67 177.23 63.34 253.46 63 332 C42.21 332 21.42 332 0 332 C0 222.44 0 112.88 0 0 Z " fill="#EF7E20" transform="translate(595,840)"/>
<path d="M0 0 C1.26546661 -0.01253311 2.53093323 -0.02506622 3.83474731 -0.03797913 C5.20999169 -0.02570239 6.58522626 -0.0122811 7.96044922 0.00219727 C9.38426901 0.00136751 10.8080887 -0.00109589 12.23190308 -0.00511169 C15.21625616 -0.00796756 18.199858 0.00669772 21.18408203 0.03417969 C24.98012324 0.06807743 28.77480546 0.06230532 32.5709095 0.04351711 C35.51383447 0.03285856 38.45645262 0.04196728 41.39934921 0.05690193 C42.79695596 0.06203228 44.19459549 0.06166555 45.59219742 0.05535698 C57.21898949 0.02260276 67.28447028 1.38442753 75.92529297 9.72485352 C83.86866302 18.55484118 86.04933178 28.55601391 85.82763672 40.23657227 C85.69953641 42.55572165 85.50908009 44.87204599 85.26513672 47.18188477 C84.28400582 56.53328863 85.73785964 62.52487898 89.72998047 70.92407227 C95.15362512 82.48769199 95.96993966 94.09621685 92.01513672 106.31860352 C88.53504542 114.99379513 83.15441772 121.61141308 74.64013672 125.63110352 C64.69653242 129.31391992 53.72917744 128.79004767 43.27685547 128.79907227 C41.91307034 128.80229348 40.54928554 128.80565817 39.1855011 128.80915833 C36.34737343 128.81510251 33.50927602 128.81700275 30.67114258 128.81640625 C27.04203555 128.81630404 23.41312156 128.8300379 19.78406048 128.84717846 C16.97617198 128.85830529 14.16833042 128.86032537 11.36042213 128.85979652 C9.37459997 128.8615413 7.38879243 128.87236197 5.40299988 128.88334656 C4.19436783 128.88026993 2.98573578 128.8771933 1.74047852 128.87402344 C0.68032028 128.87544846 -0.37983795 128.87687347 -1.47212219 128.87834167 C-5.45027815 128.53774606 -8.32576934 127.70417661 -11.12158203 124.80297852 C-13.94430501 119.8520827 -13.80574793 113.66825616 -12.67236328 108.19360352 C-11.27311922 104.39565534 -10.76431817 103.56318598 -7.35986328 101.63110352 C-4.58564758 101.25256348 -4.58564758 101.25256348 -1.35717773 101.24633789 C-0.14524246 101.23622681 1.06669281 101.22611572 2.31535339 101.21569824 C4.27629692 101.2202301 4.27629692 101.2202301 6.27685547 101.22485352 C7.63964581 101.21561322 9.0024254 101.20464016 10.3651886 101.1920166 C14.68599056 101.15527849 19.00670167 101.14154897 23.32763672 101.13110352 C28.32086433 101.11897896 33.31367132 101.09714147 38.3067112 101.05110168 C40.29449171 101.03765696 42.28236679 101.04187897 44.27018738 101.04650879 C54.37149605 101.15171916 54.37149605 101.15171916 63.64013672 97.63110352 C64.73423641 94.65466555 64.80358135 91.78716818 64.82763672 88.63110352 C64.84181641 87.78547852 64.85599609 86.93985352 64.87060547 86.06860352 C64.6009298 83.21644052 64.43485034 81.89216004 62.64013672 79.63110352 C55.413629 76.05265309 48.60679154 76.22176983 40.65576172 76.26000977 C39.30913261 76.25330626 37.96251168 76.2447237 36.61590576 76.23435974 C30.93210006 76.19449502 25.24837555 76.19306532 19.56445312 76.1953125 C16.0731679 76.1953636 12.58238691 76.17620847 9.09123993 76.14597893 C7.12369674 76.13517686 5.15607077 76.14731119 3.1885376 76.1598053 C1.39582428 76.14475197 1.39582428 76.14475197 -0.43310547 76.12939453 C-1.48375183 76.1295607 -2.53439819 76.12972687 -3.61688232 76.12989807 C-7.04695315 75.50616036 -8.19873075 74.30539101 -10.35986328 71.63110352 C-11.75852231 68.83378546 -11.60523595 66.43825793 -11.67236328 63.31860352 C-11.70974609 62.1880957 -11.74712891 61.05758789 -11.78564453 59.89282227 C-11.27352817 55.96972903 -10.14649015 54.38760469 -7.35986328 51.63110352 C-4.39915155 50.64419961 -2.43072367 50.49571242 0.65893555 50.47338867 C2.19116508 50.45799545 2.19116508 50.45799545 3.75434875 50.44229126 C5.40904427 50.43133926 5.40904427 50.43133926 7.09716797 50.42016602 C9.42985727 50.39209684 11.76253947 50.36343237 14.09521484 50.33422852 C17.77530719 50.29297022 21.45526703 50.25608468 25.13549805 50.22973633 C28.6855004 50.2021117 32.23489866 50.15623815 35.78466797 50.10766602 C36.88172562 50.10441315 37.97878326 50.10116028 39.10908508 50.09780884 C44.66218772 50.0085747 48.88825282 49.85396977 53.64013672 46.63110352 C56.4505044 42.67067183 56.14078847 38.29550898 55.64013672 33.63110352 C54.90064675 30.64852434 54.90064675 30.64852434 52.64013672 28.63110352 C46.17977003 25.54692321 39.9493892 25.24565976 32.90966797 25.40844727 C31.91561447 25.41743546 30.92156097 25.42642365 29.89738464 25.4356842 C26.74876441 25.46548314 23.60093955 25.51526699 20.45263672 25.56860352 C17.29368039 25.61655045 14.13492431 25.65985823 10.97575378 25.69081116 C9.01786932 25.71045535 7.06005132 25.73995424 5.10249329 25.78074646 C-5.88448295 25.9019503 -5.88448295 25.9019503 -10.20361328 21.93969727 C-11.78791224 18.77645172 -11.82975098 16.22050734 -11.85986328 12.69360352 C-11.89080078 11.48833008 -11.92173828 10.28305664 -11.95361328 9.04125977 C-10.77255418 2.25794007 -6.51791699 0.00564524 0 0 Z " fill="#2D4881" transform="translate(1285.35986328125,1259.368896484375)"/>
<path d="M0 0 C0.98145744 -0.00832352 0.98145744 -0.00832352 1.98274231 -0.01681519 C4.14419084 -0.02861488 6.30354186 -0.00431731 8.46484375 0.02148438 C9.97737533 0.02319715 11.48990988 0.0231281 13.00244141 0.0213623 C16.17688321 0.02301631 19.35061958 0.04171136 22.52490234 0.07324219 C26.56171719 0.11264941 30.5975969 0.1173195 34.63456726 0.10977936 C37.76280026 0.1066821 40.89082953 0.11893135 44.01901245 0.13591003 C45.50510373 0.14286846 46.99121812 0.14607341 48.47732544 0.1452179 C64.01831234 0.15879746 79.93827943 2.73639121 91.75390625 13.80273438 C104.97707992 28.3419585 110.85251766 46.27150003 110.55078125 65.76367188 C109.57939985 84.42441979 104.22969561 102.41889262 90.40234375 115.61523438 C72.48977705 130.61394177 49.69709318 128.94707479 27.63476562 128.87597656 C24.28584079 128.86694317 20.9375314 128.87125748 17.58865738 128.88312149 C14.365083 128.89207284 11.14154722 128.88581865 7.91796875 128.88085938 C6.72012756 128.88490784 5.52228638 128.8889563 4.28814697 128.89312744 C3.17888855 128.88682312 2.06963013 128.8805188 0.92675781 128.87402344 C-0.04646423 128.87243225 -1.01968628 128.87084106 -2.0223999 128.86920166 C-4.70777895 128.60437427 -6.32352859 128.03881921 -8.59765625 126.61523438 C-11.36996045 122.99263879 -11.00156533 118.54828612 -11.03515625 114.17773438 C-11.06802734 113.42685547 -11.10089844 112.67597656 -11.13476562 111.90234375 C-11.14185547 111.16951172 -11.14894531 110.43667969 -11.15625 109.68164062 C-11.16970459 109.02107666 -11.18315918 108.3605127 -11.19702148 107.67993164 C-10.46911792 105.1724447 -9.43673556 103.40027176 -7.50779724 101.62541199 C-2.96918811 99.22516962 2.66854487 99.96056751 7.6640625 100.01367188 C9.65236252 100.00143571 11.64066258 99.98918387 13.62895679 99.97603798 C16.41155759 99.96351082 19.19390413 99.97316114 21.97650146 99.98321533 C26.82431946 99.99931639 31.67196029 99.99643085 36.51972961 99.96963501 C39.09635358 99.95761212 41.67309935 99.96010447 44.24967957 99.9793396 C54.99921109 99.94615935 63.48575449 98.6009641 71.421875 91.00195312 C80.06046656 80.59134278 80.39217458 67.48019899 79.40234375 54.61523438 C77.89023077 45.9085456 74.17364544 39.32247437 67.40234375 33.61523438 C54.51374338 24.82755231 32.9351217 28.55927654 18.14599609 28.71118164 C15.00227293 28.74134124 11.85866509 28.75912416 8.71484375 28.77539062 C7.75336426 28.78885025 6.79188477 28.80230988 5.80126953 28.81617737 C0.37136671 28.83659305 -3.97636134 28.76844091 -8.34765625 25.17773438 C-11.18862917 21.62651823 -10.82893401 17.59203667 -10.91015625 13.24023438 C-10.94753906 11.933125 -10.98492188 10.62601563 -11.0234375 9.27929688 C-10.19474425 2.14797334 -6.91160226 -0.01202633 0 0 Z " fill="#2D4881" transform="translate(1618.59765625,1263.384765625)"/>
<path d="M0 0 C0.66 0 1.32 0 2 0 C20.71550129 37.24178068 20.71550129 37.24178068 26.5 49.5 C31.73636634 60.59403212 37.25460032 71.54379225 42.75845337 82.50665283 C48.10037195 93.15079933 53.37637183 103.81604431 58.46801758 114.58276367 C61.44714533 120.87919044 64.52506897 127.11884969 67.7175293 133.31005859 C70 137.78770232 70 137.78770232 70 140 C59.96588331 140.17707265 50.00887894 139.62277469 40 139 C39.58492187 138.16984375 39.16984375 137.3396875 38.7421875 136.484375 C38.4536792 135.90743896 38.1651709 135.33050293 37.86791992 134.73608398 C37.18553259 133.37114154 36.50341869 132.00606236 35.8215332 130.64086914 C33.46681113 125.92793651 31.10508595 121.21859621 28.73828125 116.51171875 C22.09340847 103.28122802 15.55060601 90.01138331 9.20703125 76.6328125 C7.51490401 73.06523827 5.78438692 69.52227516 4 66 C1.43234383 68.56765617 0.32324002 71.4885963 -1.09765625 74.76953125 C-1.40420639 75.46622421 -1.71075653 76.16291718 -2.02659607 76.88072205 C-2.69294893 78.39560866 -3.35734267 79.91135819 -4.02001953 81.42785645 C-5.7955051 85.48922771 -7.58672763 89.54362902 -9.37890625 93.59765625 C-9.75177765 94.441539 -10.12464905 95.28542175 -10.50881958 96.15487671 C-14.74892701 105.72794925 -19.11702558 115.24168362 -23.5 124.75 C-23.87843048 125.5713443 -24.25686096 126.3926886 -24.64675903 127.23892212 C-26.76139734 131.82739489 -28.88012665 136.41393735 -31 141 C-41.23 140.67 -51.46 140.34 -62 140 C-59.75008535 133.25025606 -59.75008535 133.25025606 -58.40625 130.28173828 C-58.10340088 129.60885773 -57.80055176 128.93597717 -57.48852539 128.2427063 C-57.16231201 127.52581635 -56.83609863 126.80892639 -56.5 126.0703125 C-56.15251709 125.30032928 -55.80503418 124.53034607 -55.44702148 123.73703003 C-54.30069698 121.19846471 -53.15031856 118.66175764 -52 116.125 C-51.18849197 114.32956722 -50.37729944 112.5339918 -49.56640625 110.73828125 C-47.88143116 107.00758376 -46.19509954 103.27750396 -44.5078125 99.54785156 C-41.02942884 91.85637945 -37.56751352 84.15750949 -34.10559082 76.45861816 C-32.25323948 72.33935037 -30.40014676 68.22041626 -28.546875 64.1015625 C-28.17802185 63.28175903 -27.8091687 62.46195557 -27.42913818 61.61730957 C-25.0611387 56.35523106 -22.69031622 51.09443214 -20.31774902 45.83441162 C-18.68660407 42.2178637 -17.0564032 38.60089057 -15.42626953 34.98388672 C-14.6562309 33.27599281 -13.88574058 31.56830247 -13.11474609 29.86083984 C-8.63954805 19.94963319 -4.23767645 10.01540629 0 0 Z " fill="#2D4881" transform="translate(571,1243)"/>
<path d="M0 0 C9.9 0 19.8 0 30 0 C32.62657965 5.08252303 35.25202795 10.16561553 37.875 15.25 C38.26470978 16.00541077 38.65441956 16.76082153 39.05593872 17.53912354 C43.97181108 27.07249835 48.8422921 36.62456403 53.60742188 46.234375 C56.67594487 52.40278579 59.87995394 58.49318208 63.11108398 64.57763672 C67.04130199 72.01029389 70.78247632 79.53327372 74.52099609 87.0637207 C78.13699366 94.32786582 81.8586763 101.5278967 85.703125 108.67382812 C88.38020425 113.68418364 90.75691892 118.78116933 93 124 C88.62614201 124.26210888 84.25430191 124.42144886 79.875 124.5625 C78.6375 124.63791016 77.4 124.71332031 76.125 124.79101562 C67.2311668 125.00618901 67.2311668 125.00618901 64.04003906 122.39819336 C62.41051224 120.01643148 61.21471306 117.61753312 60 115 C58.88398206 113.01445589 57.75841519 111.03425857 56.625 109.05859375 C55.41357949 106.85325551 54.20538101 104.64614506 53 102.4375 C51.68331793 100.04095755 50.36224465 97.64686539 49.0390625 95.25390625 C48.70556793 94.65074585 48.37207336 94.04758545 48.0284729 93.42614746 C44.0207901 86.20151265 39.84679056 79.0745862 35.65625 71.95483398 C35.11742187 71.03903564 34.57859375 70.1232373 34.0234375 69.1796875 C33.55856934 68.39319824 33.09370117 67.60670898 32.61474609 66.79638672 C30.36041483 62.89237851 28.18934434 58.94081982 26 55 C25.67 78.43 25.34 101.86 25 126 C12.625 126.495 12.625 126.495 0 127 C0 85.09 0 43.18 0 0 Z " fill="#2D4881" transform="translate(356,1256)"/>
<path d="M0 0 C9.57 0 19.14 0 29 0 C34.10156932 9.62010215 39.16109853 19.24526698 44 29 C47.20694155 35.46391338 50.48945219 41.87783835 53.875 48.25 C57.69642515 55.44540496 61.37496092 62.70377974 65 70 C68.60437815 77.2545771 72.26169491 84.47130383 76.0625 91.625 C79.8322316 98.7299674 83.50934228 105.87783068 87.125 113.0625 C87.61105713 114.02172363 88.09711426 114.98094727 88.59790039 115.96923828 C89.04254639 116.85724121 89.48719238 117.74524414 89.9453125 118.66015625 C90.34250488 119.45043213 90.73969727 120.24070801 91.14892578 121.05493164 C92 123 92 123 92 125 C88.92870532 125.04591637 85.86459107 125.05582071 82.79296875 125.015625 C80.29452987 125.00533277 77.79424168 125.0763944 75.30078125 125.234375 C71.53747072 125.31574388 68.5944055 125.13248393 65 124 C61.79316615 120.92028389 60.06058197 117.2917115 58.16113281 113.33837891 C56.30497516 109.60030532 54.22341312 105.9925374 52.16918945 102.3605957 C50.3491464 99.14177688 48.5509125 95.91141393 46.75390625 92.6796875 C42.45365028 84.98734624 38.00786739 77.38221509 33.53076172 69.79174805 C32.70535889 68.38856323 32.70535889 68.38856323 31.86328125 66.95703125 C31.38157471 66.14210205 30.89986816 65.32717285 30.40356445 64.48754883 C28.83729615 61.71163862 27.42540337 58.85080675 26 56 C25.67 79.43 25.34 102.86 25 127 C16.75 127 8.5 127 0 127 C0 85.09 0 43.18 0 0 Z " fill="#2D4881" transform="translate(943,1263)"/>
<path d="M0 0 C10.23 0 20.46 0 31 0 C31.03738281 4.04507812 31.07476563 8.09015625 31.11328125 12.2578125 C31.15141689 15.49348203 31.19248943 18.72908477 31.2355423 21.96469116 C31.2801109 25.37454974 31.31956459 28.78428807 31.34643555 32.19433594 C31.37754229 36.11158567 31.43232892 40.02833576 31.48828125 43.9453125 C31.49467117 45.16115021 31.5010611 46.37698792 31.50764465 47.62966919 C31.63189903 54.79040036 32.04691074 59.77844807 37.0625 65.25 C44.35063325 69.59186662 52.84557842 69.67956743 61 68 C66.5147621 66.16174597 69.31679679 64.26076487 72 59 C72.46640247 56.11829847 72.46640247 56.11829847 72.43237305 53.01635742 C72.45216721 51.83551071 72.47196136 50.654664 72.49235535 49.43803406 C72.49874527 48.17328751 72.50513519 46.90854095 72.51171875 45.60546875 C72.53864555 43.65173088 72.53864555 43.65173088 72.56611633 41.65852356 C72.61350911 38.2079061 72.64338725 34.75735354 72.66955566 31.30651855 C72.69941575 27.78038813 72.74576717 24.25447662 72.79101562 20.72851562 C72.87847793 13.81899339 72.93851183 6.90999764 73 0 C83.56 0 94.12 0 105 0 C105.04604776 7.79230466 105.08583364 15.58413227 105.10986328 23.37646484 C105.11988671 26.02426763 105.13350899 28.67205944 105.15087891 31.31982422 C105.17528819 35.13772296 105.18652004 38.95547463 105.1953125 42.7734375 C105.20563507 43.94675629 105.21595764 45.12007507 105.22659302 46.32894897 C105.22825999 58.69264183 103.73970834 67.67038284 95.21484375 76.94140625 C83.52115739 88.05881238 67.1727726 90.57626944 51.625 90.4375 C50.44832764 90.43137695 49.27165527 90.42525391 48.05932617 90.41894531 C39.11480785 90.25854978 31.35585571 89.24949944 23 86 C21.85144531 85.58427734 21.85144531 85.58427734 20.6796875 85.16015625 C13.29555828 82.01828166 6.10832687 75.82892682 2.4375 68.6875 C0.53729127 63.81305151 -0.12435773 60.1891432 -0.11352539 54.94628906 C-0.11344986 53.72532532 -0.11337433 52.50436157 -0.11329651 51.24639893 C-0.10813522 49.93274353 -0.10297394 48.61908813 -0.09765625 47.265625 C-0.09579021 45.9037074 -0.09436718 44.54178912 -0.09336853 43.17987061 C-0.08955803 39.60258111 -0.07974032 36.02533248 -0.06866455 32.44805908 C-0.05841884 28.79480553 -0.05380929 25.14154515 -0.04882812 21.48828125 C-0.03864791 14.32548479 -0.01907255 7.16280042 0 0 Z " fill="#2D4881" transform="translate(1392,1267)"/>
<path d="M0 0 C0.495 1.485 0.495 1.485 1 3 C-0.13183234 5.23497034 -1.31821153 7.22525589 -2.6875 9.3125 C-3.11160156 9.97531982 -3.53570313 10.63813965 -3.97265625 11.32104492 C-11.52490452 23.03340832 -19.33478355 34.58473581 -27.09570312 46.15942383 C-30.65256842 51.08130309 -30.65256842 51.08130309 -30.67333984 56.92529297 C-29.22183004 61.39771151 -26.40604087 65.18203234 -23.8125 69.0625 C-22.53089009 71.02580677 -21.2496506 72.98935539 -19.96875 74.953125 C-18.98068359 76.45456055 -18.98068359 76.45456055 -17.97265625 77.98632812 C-14.86806812 82.72927811 -11.84327048 87.52218599 -8.8125 92.3125 C-5.47004027 97.58443859 -2.11455654 102.84491739 1.32421875 108.0546875 C1.84024658 108.83932373 2.35627441 109.62395996 2.88793945 110.43237305 C3.85315828 111.89612715 4.82403469 113.35617206 5.80151367 114.81176758 C9 119.66755741 9 119.66755741 9 123 C0.17973876 125.58604518 -9.31858891 128.33135501 -18.1875 124.5625 C-27.11554286 119.14112252 -32.43010029 109.54967357 -37.625 100.8125 C-39.01670826 98.50947592 -40.40993185 96.20742394 -41.8046875 93.90625 C-42.15309692 93.32929886 -42.50150635 92.75234772 -42.86047363 92.15791321 C-46.94774666 85.40174284 -51.21140278 78.75916389 -55.48291016 72.1184082 C-56.53425286 70.47890064 -57.57885146 68.83504001 -58.61523438 67.18603516 C-59.47690893 65.82576823 -60.36016776 64.47863924 -61.27539062 63.15380859 C-63.78953906 59.31103618 -64.81730591 56.00331936 -64.59228516 51.47705078 C-63.31243543 46.12447231 -59.84406528 41.84941298 -56.6875 37.4375 C-55.59622803 35.86174194 -55.59622803 35.86174194 -54.48291016 34.25415039 C-53.01866767 32.1427405 -51.54611866 30.03706465 -50.06494141 27.9375 C-48.24709287 25.35150408 -46.46286292 22.7481102 -44.69921875 20.125 C-43.75797869 18.7290546 -42.81658557 17.33321238 -41.875 15.9375 C-41.46338623 15.32640381 -41.05177246 14.71530762 -40.62768555 14.08569336 C-30.44876396 -0.74810902 -17.85965195 -7.74981326 0 0 Z " fill="#2D4881" transform="translate(755,1260)"/>
<path d="M0 0 C10.23 0 20.46 0 31 0 C31 41.91 31 83.82 31 127 C20.77 127 10.54 127 0 127 C0 85.09 0 43.18 0 0 Z " fill="#2D4881" transform="translate(651,1256)"/>
<path d="M0 0 C0.66 0 1.32 0 2 0 C2 42.9 2 85.8 2 130 C-6.25 130 -14.5 130 -23 130 C-23.33 108.55 -23.66 87.1 -24 65 C-30.6 74.9 -37.2 84.8 -44 95 C-47.85186887 91.14813113 -49.81786129 86.95492518 -52.25 82.125 C-52.72179687 81.22652344 -53.19359375 80.32804687 -53.6796875 79.40234375 C-54.12054688 78.52964844 -54.56140625 77.65695312 -55.015625 76.7578125 C-55.42071289 75.9652002 -55.82580078 75.17258789 -56.24316406 74.35595703 C-57.16830527 71.47608197 -56.89543589 69.86396405 -56 67 C-54.25 64.7109375 -54.25 64.7109375 -52 62.375 C-48.74500472 58.89924006 -45.6197883 55.39044221 -42.625 51.6875 C-39.29982081 47.58026647 -35.92342443 43.52511721 -32.5 39.5 C-29.14539595 35.55361117 -25.82777828 31.58357507 -22.5625 27.5625 C-18.55244489 22.62926673 -14.41423902 17.81657399 -10.25268555 13.01147461 C-7.48976615 9.80261976 -4.86006919 6.55791954 -2.375 3.125 C-1.59125 2.09375 -0.8075 1.0625 0 0 Z " fill="#2D4881" transform="translate(495,1251)"/>
<path d="M0 0 C0.33 0 0.66 0 1 0 C1 43.23 1 86.46 1 131 C-6.92 131 -14.84 131 -23 131 C-23.33 109.22 -23.66 87.44 -24 65 C-30.6 74.9 -37.2 84.8 -44 95 C-48.48479572 93.50506809 -49.16067717 90.36506537 -51.22265625 86.28710938 C-51.72667969 85.26423828 -52.23070312 84.24136719 -52.75 83.1875 C-53.26949219 82.17623047 -53.78898437 81.16496094 -54.32421875 80.12304688 C-55.05318359 78.6602832 -55.05318359 78.6602832 -55.796875 77.16796875 C-56.24385742 76.27360107 -56.69083984 75.3792334 -57.15136719 74.45776367 C-58.09351671 71.72916204 -58.08573825 70.63628602 -57 68 C-55.25 65.80859375 -55.25 65.80859375 -53 63.4375 C-49.75499346 59.93657812 -46.62959684 56.39714664 -43.625 52.6875 C-40.33576152 48.62734625 -37.00502133 44.60944728 -33.625 40.625 C-33.16512695 40.08270752 -32.70525391 39.54041504 -32.23144531 38.98168945 C-30.35008017 36.76483383 -28.46699428 34.54944292 -26.58398438 32.33398438 C-18.05576583 22.29592908 -9.65801545 12.16885701 -1.53125 1.80078125 C-1.0259375 1.20652344 -0.520625 0.61226562 0 0 Z " fill="#2D4881" transform="translate(1082,1258)"/>
<path d="M0 0 C4.56307846 4.16880324 7.74791247 8.84963596 11.09375 14.0234375 C11.67425613 14.90736679 12.25476227 15.79129608 12.8528595 16.70201111 C16.06670682 21.60229019 19.2398667 26.52750133 22.39526367 31.46557617 C30.78490617 44.55591954 30.78490617 44.55591954 40.58203125 56.58984375 C60.95916314 79.65565796 56.99935831 108.71190754 55.33325195 137.70874023 C55.22327881 139.45485596 55.11330566 141.20097168 55 143 C46.75 143 38.5 143 30 143 C30.06703125 139.11734375 30.1340625 135.2346875 30.203125 131.234375 C30.22721725 127.40464333 30.23052021 123.57540513 30.23193359 119.74560547 C30.24381681 117.11748877 30.27675458 114.48936829 30.33251953 111.86181641 C30.68718419 94.30926172 29.13130581 82.15883251 18.44866943 67.9432373 C16.56604877 65.41790017 14.9300614 62.76739226 13.29296875 60.078125 C12.2602842 58.46716287 11.22517754 56.8577505 10.1875 55.25 C5.01413005 47.1756612 -0.10749751 39.07093121 -5.1875 30.9375 C-5.82341064 29.92010742 -6.45932129 28.90271484 -7.11450195 27.85449219 C-10.45027875 22.50966288 -10.45027875 22.50966288 -12 20 C-12.56678467 19.1128833 -13.13356934 18.2257666 -13.7175293 17.31176758 C-15 15 -15 15 -14.6015625 13.046875 C-12.22099111 10.00438864 -9.36180727 7.68156746 -6.375 5.25 C-5.76398438 4.74339844 -5.15296875 4.23679687 -4.5234375 3.71484375 C-3.02070947 2.4703971 -1.51102533 1.23435872 0 0 Z " fill="#2D4881" transform="translate(1111,1250)"/>
<path d="M0 0 C8.58 0 17.16 0 26 0 C26 41.25 26 82.5 26 125 C17.42 125 8.84 125 0 125 C0 83.75 0 42.5 0 0 Z " fill="#2D4881" transform="translate(1570,1265)"/>
<path d="M0 0 C33 0 66 0 100 0 C100 8.91 100 17.82 100 27 C67 27 34 27 0 27 C0 18.09 0 9.18 0 0 Z " fill="#2D4881" transform="translate(772,1308)"/>
<path d="M0 0 C33 0 66 0 100 0 C100 8.58 100 17.16 100 26 C67 26 34 26 0 26 C0 17.42 0 8.84 0 0 Z " fill="#2D4881" transform="translate(772,1357)"/>
<path d="M0 0 C33 0 66 0 100 0 C100 8.58 100 17.16 100 26 C67 26 34 26 0 26 C0 17.42 0 8.84 0 0 Z " fill="#2D4881" transform="translate(772,1259)"/>
<path d="M0 0 C8.58 0 17.16 0 26 0 C26 28.05 26 56.1 26 85 C17.42 85 8.84 85 0 85 C0 56.95 0 28.9 0 0 Z " fill="#2D4881" transform="translate(1522,1305)"/>
<path d="M0 0 C33 0 66 0 100 0 C100 6.93 100 13.86 100 21 C67 21 34 21 0 21 C0 14.07 0 7.14 0 0 Z " fill="#2D4881" transform="translate(1396,1368)"/>
<path d="M0 0 C3.9166043 -0.0580966 7.83309763 -0.09362893 11.75 -0.125 C12.86117188 -0.14175781 13.97234375 -0.15851563 15.1171875 -0.17578125 C16.72207031 -0.18544922 16.72207031 -0.18544922 18.359375 -0.1953125 C19.34389648 -0.20578613 20.32841797 -0.21625977 21.34277344 -0.22705078 C24.09213313 0.00787246 25.60417628 0.71214608 28 2 C24.75169058 8.40303248 21.49786448 14.80324046 18.24047852 21.20166016 C17.13671577 23.37128546 16.03414288 25.54151656 14.93286133 27.71240234 C8.54773512 40.29682116 2.06950719 52.78461491 -5 65 C-8.2908988 63.90303373 -8.96796717 63.15198144 -11.125 60.5625 C-14.01053274 57.15794209 -16.94581929 53.81204967 -19.9375 50.5 C-20.70964844 49.6440625 -21.48179688 48.788125 -22.27734375 47.90625 C-22.84582031 47.2771875 -23.41429687 46.648125 -24 46 C-22.62331473 42.41186973 -21.04657346 39.01629495 -19.27734375 35.60546875 C-18.74262451 34.57413818 -18.20790527 33.54280762 -17.65698242 32.48022461 C-17.08955322 31.39362549 -16.52212402 30.30702637 -15.9375 29.1875 C-15.35911377 28.07705322 -14.78072754 26.96660645 -14.18481445 25.82250977 C-9.62851087 17.11436052 -4.90997389 8.51315886 0 0 Z " fill="#2D4881" transform="translate(1182,1254)"/>
<path d="M0 0 C4.14082455 1.78808333 6.43189313 4.3312759 9 8 C10.81205684 13.43617053 10.7099836 18.98215186 8.8125 24.375 C6.32112936 27.98319196 4.24126741 30.3951478 -0.11328125 31.5703125 C-5.23661554 32.37971321 -8.65628079 32.1315185 -13 29 C-17.55691593 23.08832528 -18.68665111 18.29098632 -18 11 C-14.92264097 2.41578797 -8.82619221 -0.93533829 0 0 Z " fill="#2D4881" transform="translate(1538,1265)"/>
<path d="M0 0 C5.28 0 10.56 0 16 0 C16 5.61 16 11.22 16 17 C10.72 17 5.44 17 0 17 C0 11.39 0 5.78 0 0 Z " fill="#EF7E20" transform="translate(1127,807)"/>
<path d="M0 0 C0 5.94 0 11.88 0 18 C-4.95 18 -9.9 18 -15 18 C-16.18798753 12.50555765 -17.13222685 7.63616955 -17 2 C-14.54187409 1.66507287 -12.08352273 1.3319903 -9.625 1 C-8.92632813 0.90460937 -8.22765625 0.80921875 -7.5078125 0.7109375 C-2.2265625 0 -2.2265625 0 0 0 Z " fill="#EF7E20" transform="translate(1118,806)"/>
<path d="M0 0 C5.28 0 10.56 0 16 0 C16 5.61 16 11.22 16 17 C10.72 17 5.44 17 0 17 C0 11.39 0 5.78 0 0 Z " fill="#EF7E20" transform="translate(1127,781)"/>
<path d="M0 0 C0.495 7.92 0.495 7.92 1 16 C-11.55720123 17.36491318 -11.55720123 17.36491318 -15 15 C-16.38226016 12.23547967 -16.09525387 9.9538637 -16.0625 6.875 C-16.05347656 5.77929688 -16.04445313 4.68359375 -16.03515625 3.5546875 C-16.02355469 2.71164062 -16.01195312 1.86859375 -16 1 C-10.78531031 -0.60744075 -5.40095963 -0.05870608 0 0 Z " fill="#EF7E20" transform="translate(1118,781)"/>
</svg>
